<svg width="50" height="44" viewBox="0 0 50 44" fill="none" xmlns="http://www.w3.org/2000/svg">
<path d="M44.4608 16.183C47.52 24.1036 43.5791 33.0045 35.6585 36.0637V36.0637C27.7379 39.1229 18.837 35.182 15.7778 27.2615V27.2615C12.7185 19.3409 16.6595 10.44 24.58 7.38073L36.314 2.84863C37.7541 2.2924 39.3724 3.00893 39.9287 4.44904L44.4608 16.183Z" fill="#00CB83"/>
<path d="M37.1974 10.9882C43.1359 17.0568 43.0305 26.7906 36.9619 32.7291V32.7291C30.8932 38.6677 21.1595 38.5622 15.2209 32.4936V32.4936C9.28239 26.425 9.38783 16.6913 15.4564 10.7527L24.4468 1.95503C25.5502 0.875296 27.32 0.894466 28.3997 1.99785L37.1974 10.9882Z" fill="#E54A00"/>
<path d="M25.7572 7.73817C33.632 10.9134 37.4417 19.8712 34.2665 27.746V27.746C31.0912 35.6208 22.1334 39.4306 14.2586 36.2553V36.2553C6.38379 33.0801 2.57405 24.1223 5.74929 16.2475L10.4533 4.58135C11.0306 3.14956 12.6593 2.45689 14.0911 3.0342L25.7572 7.73817Z" fill="#FFC300"/>
</svg>
